<svg width="10" height="10" viewBox="0 0 10 10" fill="none" xmlns="http://www.w3.org/2000/svg">
<path d="M4.53604 0.423864C4.63394 -0.0875672 5.36606 -0.0875673 5.46396 0.423863C5.5437 0.840446 6.08948 0.949009 6.32257 0.594652C6.60873 0.159614 7.28513 0.439787 7.17985 0.94975C7.0941 1.36514 7.5568 1.6743 7.90775 1.43612C8.33861 1.1437 8.8563 1.66139 8.56388 2.09225C8.3257 2.4432 8.63486 2.9059 9.05025 2.82015C9.56021 2.71487 9.84039 3.39127 9.40535 3.67743C9.05099 3.91052 9.15955 4.4563 9.57614 4.53604C10.0876 4.63394 10.0876 5.36606 9.57614 5.46396C9.15955 5.5437 9.05099 6.08948 9.40535 6.32257C9.84039 6.60873 9.56021 7.28513 9.05025 7.17985C8.63486 7.0941 8.3257 7.5568 8.56388 7.90775C8.8563 8.33861 8.33861 8.8563 7.90775 8.56388C7.5568 8.3257 7.0941 8.63486 7.17985 9.05025C7.28513 9.56021 6.60873 9.84039 6.32257 9.40535C6.08948 9.05099 5.5437 9.15955 5.46396 9.57614C5.36606 10.0876 4.63394 10.0876 4.53604 9.57614C4.4563 9.15955 3.91052 9.05099 3.67743 9.40535C3.39127 9.84039 2.71487 9.56021 2.82015 9.05025C2.9059 8.63486 2.4432 8.3257 2.09225 8.56388C1.66139 8.8563 1.1437 8.33861 1.43612 7.90775C1.6743 7.5568 1.36514 7.0941 0.94975 7.17985C0.439787 7.28513 0.159614 6.60873 0.594652 6.32257C0.949009 6.08948 0.840446 5.5437 0.423864 5.46396C-0.0875672 5.36606 -0.0875673 4.63394 0.423863 4.53604C0.840446 4.4563 0.949009 3.91052 0.594652 3.67743C0.159614 3.39127 0.439787 2.71487 0.94975 2.82015C1.36514 2.9059 1.6743 2.4432 1.43612 2.09225C1.1437 1.66139 1.66139 1.1437 2.09225 1.43612C2.4432 1.6743 2.9059 1.36514 2.82015 0.94975C2.71487 0.439787 3.39127 0.159614 3.67743 0.594652C3.91052 0.949009 4.4563 0.840446 4.53604 0.423864Z" fill="#FF8C00"/>
</svg>
